<svg xmlns="http://www.w3.org/2000/svg" width="880" height="96" viewBox="0 0 880 96" shape-rendering="crispEdges" role="img">
<title>1.14 — the judge everywhere: released 1.14.0, 2 of 2 done</title>
<defs>
<pattern id="dirt" width="64" height="64" patternUnits="userSpaceOnUse"><path fill="#3a2a1d" d="M0 0h4v4h-4zM20 0h8v4h-8zM32 0h8v4h-8zM60 0h4v4h-4zM20 4h4v4h-4zM36 4h4v4h-4zM20 8h12v4h-12zM28 12h4v4h-4zM52 12h4v4h-4zM0 16h8v4h-8zM16 16h4v4h-4zM28 16h8v4h-8zM44 16h4v4h-4zM52 16h4v4h-4zM20 20h4v4h-4zM28 20h8v4h-8zM44 20h8v4h-8zM48 24h4v4h-4zM4 28h4v4h-4zM16 28h4v4h-4zM28 28h4v4h-4zM56 28h8v4h-8zM8 32h4v4h-4zM52 32h4v4h-4zM4 36h4v4h-4zM12 36h8v4h-8zM28 36h4v4h-4zM52 36h4v4h-4zM8 40h8v4h-8zM20 40h4v4h-4zM32 40h8v4h-8zM56 40h8v4h-8zM4 44h4v4h-4zM28 44h8v4h-8zM60 44h4v4h-4zM16 48h4v4h-4zM24 48h8v4h-8zM36 48h4v4h-4zM44 48h4v4h-4zM8 52h4v4h-4zM16 52h4v4h-4zM48 52h4v4h-4zM4 56h4v4h-4zM16 56h4v4h-4zM36 56h4v4h-4zM48 56h12v4h-12zM12 60h20v4h-20zM40 60h4v4h-4z"/><path fill="#453325" d="M4 0h8v4h-8zM44 0h4v4h-4zM52 0h4v4h-4zM8 4h4v4h-4zM32 4h4v4h-4zM44 4h4v4h-4zM0 8h4v4h-4zM8 8h4v4h-4zM36 8h4v4h-4zM44 8h20v4h-20zM0 12h4v4h-4zM44 12h4v4h-4zM60 12h4v4h-4zM24 16h4v4h-4zM60 16h4v4h-4zM8 20h4v4h-4zM16 20h4v4h-4zM36 20h4v4h-4zM56 20h4v4h-4zM4 24h12v4h-12zM24 24h4v4h-4zM36 24h8v4h-8zM52 24h4v4h-4zM60 24h4v4h-4zM0 28h4v4h-4zM8 28h8v4h-8zM36 28h4v4h-4zM44 28h4v4h-4zM12 32h4v4h-4zM20 32h16v4h-16zM40 32h8v4h-8zM56 32h4v4h-4zM0 36h4v4h-4zM20 36h4v4h-4zM32 36h8v4h-8zM44 36h4v4h-4zM56 36h4v4h-4zM4 40h4v4h-4zM16 40h4v4h-4zM52 40h4v4h-4zM8 44h16v4h-16zM48 44h4v4h-4zM12 48h4v4h-4zM20 48h4v4h-4zM4 52h4v4h-4zM20 52h4v4h-4zM28 52h8v4h-8zM44 52h4v4h-4zM56 52h4v4h-4zM0 56h4v4h-4zM8 56h4v4h-4zM60 56h4v4h-4zM0 60h8v4h-8zM44 60h16v4h-16z"/><path fill="#2f2217" d="M12 0h8v4h-8zM56 0h4v4h-4zM0 4h4v4h-4zM12 4h8v4h-8zM24 4h8v4h-8zM48 4h4v4h-4zM56 4h4v4h-4zM40 8h4v4h-4zM8 12h4v4h-4zM24 12h4v4h-4zM48 12h4v4h-4zM48 16h4v4h-4zM56 16h4v4h-4zM24 20h4v4h-4zM40 20h4v4h-4zM16 24h8v4h-8zM28 24h4v4h-4zM44 24h4v4h-4zM20 28h8v4h-8zM32 28h4v4h-4zM40 28h4v4h-4zM48 28h8v4h-8zM0 32h4v4h-4zM16 32h4v4h-4zM36 32h4v4h-4zM60 32h4v4h-4zM24 36h4v4h-4zM60 36h4v4h-4zM44 40h4v4h-4zM0 48h4v4h-4zM8 48h4v4h-4zM32 48h4v4h-4zM52 48h4v4h-4zM12 52h4v4h-4zM24 52h4v4h-4zM40 52h4v4h-4zM40 56h4v4h-4zM60 60h4v4h-4z"/><path fill="#4f3b2b" d="M28 0h4v4h-4zM48 0h4v4h-4zM4 4h4v4h-4zM40 4h4v4h-4zM52 4h4v4h-4zM60 4h4v4h-4zM4 8h4v4h-4zM12 8h8v4h-8zM4 12h4v4h-4zM12 12h8v4h-8zM32 12h4v4h-4zM40 12h4v4h-4zM56 12h4v4h-4zM8 16h4v4h-4zM20 16h4v4h-4zM36 16h8v4h-8zM0 20h4v4h-4zM52 20h4v4h-4zM0 24h4v4h-4zM32 24h4v4h-4zM48 32h4v4h-4zM8 36h4v4h-4zM40 36h4v4h-4zM48 36h4v4h-4zM0 40h4v4h-4zM24 40h8v4h-8zM40 40h4v4h-4zM48 40h4v4h-4zM0 44h4v4h-4zM24 44h4v4h-4zM40 44h4v4h-4zM56 44h4v4h-4zM4 48h4v4h-4zM40 48h4v4h-4zM48 48h4v4h-4zM56 48h8v4h-8zM0 52h4v4h-4zM36 52h4v4h-4zM52 52h4v4h-4zM60 52h4v4h-4zM12 56h4v4h-4zM20 56h16v4h-16zM44 56h4v4h-4zM8 60h4v4h-4zM36 60h4v4h-4z"/><path fill="#5a4533" d="M40 0h4v4h-4zM32 8h4v4h-4zM20 12h4v4h-4zM36 12h4v4h-4zM12 16h4v4h-4zM4 20h4v4h-4zM12 20h4v4h-4zM60 20h4v4h-4zM56 24h4v4h-4zM4 32h4v4h-4zM36 44h4v4h-4zM44 44h4v4h-4zM52 44h4v4h-4zM32 60h4v4h-4z"/></pattern>
<pattern id="stone" width="32" height="32" patternUnits="userSpaceOnUse"><path fill="#6f6f6f" d="M0 0h4v2h-4zM6 0h2v2h-2zM12 0h2v2h-2zM16 0h2v2h-2zM20 0h4v2h-4zM28 0h4v2h-4zM10 2h2v2h-2zM14 2h8v2h-8zM24 2h2v2h-2zM2 4h6v2h-6zM12 4h2v2h-2zM18 4h2v2h-2zM24 4h2v2h-2zM2 6h2v2h-2zM6 6h2v2h-2zM12 6h2v2h-2zM16 6h2v2h-2zM26 6h2v2h-2zM12 8h2v2h-2zM22 8h2v2h-2zM28 8h2v2h-2zM0 10h6v2h-6zM8 10h4v2h-4zM16 10h2v2h-2zM28 10h2v2h-2zM6 12h8v2h-8zM18 12h4v2h-4zM6 14h2v2h-2zM20 14h2v2h-2zM24 14h8v2h-8zM2 16h8v2h-8zM12 16h2v2h-2zM18 16h4v2h-4zM26 16h2v2h-2zM4 18h4v2h-4zM10 18h2v2h-2zM14 18h4v2h-4zM22 18h2v2h-2zM26 18h2v2h-2zM4 20h2v2h-2zM8 20h2v2h-2zM16 20h4v2h-4zM0 22h2v2h-2zM6 22h8v2h-8zM28 22h4v2h-4zM0 24h4v2h-4zM16 24h2v2h-2zM28 24h2v2h-2zM0 26h2v2h-2zM14 26h6v2h-6zM24 26h2v2h-2zM4 28h4v2h-4zM22 28h8v2h-8zM0 30h2v2h-2zM4 30h2v2h-2zM26 30h2v2h-2zM30 30h2v2h-2z"/><path fill="#6a6a6a" d="M4 0h2v2h-2zM0 2h2v2h-2zM4 2h2v2h-2zM26 2h4v2h-4zM8 4h2v2h-2zM14 4h2v2h-2zM22 4h2v2h-2zM26 4h2v2h-2zM0 6h2v2h-2zM10 6h2v2h-2zM18 6h6v2h-6zM28 6h4v2h-4zM0 8h2v2h-2zM10 8h2v2h-2zM14 8h4v2h-4zM26 8h2v2h-2zM6 10h2v2h-2zM16 12h2v2h-2zM26 12h2v2h-2zM30 12h2v2h-2zM2 14h4v2h-4zM22 14h2v2h-2zM16 16h2v2h-2zM2 20h2v2h-2zM10 20h2v2h-2zM30 20h2v2h-2zM14 22h2v2h-2zM4 24h2v2h-2zM12 24h2v2h-2zM18 24h2v2h-2zM24 24h2v2h-2zM12 26h2v2h-2zM30 26h2v2h-2zM10 28h2v2h-2zM30 28h2v2h-2zM12 30h2v2h-2z"/><path fill="#737373" d="M8 0h4v2h-4zM14 0h2v2h-2zM18 0h2v2h-2zM24 0h2v2h-2zM6 2h2v2h-2zM30 2h2v2h-2zM0 4h2v2h-2zM10 4h2v2h-2zM16 4h2v2h-2zM28 4h2v2h-2zM8 6h2v2h-2zM14 6h2v2h-2zM2 8h2v2h-2zM8 8h2v2h-2zM24 8h2v2h-2zM30 8h2v2h-2zM12 10h2v2h-2zM18 10h4v2h-4zM30 10h2v2h-2zM0 12h2v2h-2zM14 12h2v2h-2zM22 12h4v2h-4zM0 14h2v2h-2zM16 14h4v2h-4zM0 16h2v2h-2zM10 16h2v2h-2zM22 16h4v2h-4zM0 18h4v2h-4zM8 18h2v2h-2zM20 18h2v2h-2zM24 18h2v2h-2zM28 18h2v2h-2zM6 20h2v2h-2zM12 20h2v2h-2zM2 22h4v2h-4zM18 22h2v2h-2zM26 22h2v2h-2zM10 24h2v2h-2zM26 24h2v2h-2zM6 26h4v2h-4zM0 28h4v2h-4zM12 28h2v2h-2zM16 28h2v2h-2zM2 30h2v2h-2zM8 30h4v2h-4zM16 30h2v2h-2zM20 30h6v2h-6zM28 30h2v2h-2z"/><path fill="#7b7b7b" d="M26 0h2v2h-2zM12 2h2v2h-2zM22 2h2v2h-2zM20 4h2v2h-2zM30 4h2v2h-2zM24 6h2v2h-2zM4 8h2v2h-2zM20 8h2v2h-2zM14 10h2v2h-2zM22 10h6v2h-6zM2 12h2v2h-2zM10 14h6v2h-6zM14 16h2v2h-2zM28 16h2v2h-2zM12 18h2v2h-2zM0 20h2v2h-2zM14 20h2v2h-2zM20 20h2v2h-2zM24 20h6v2h-6zM8 24h2v2h-2zM14 24h2v2h-2zM22 24h2v2h-2zM30 24h2v2h-2zM2 26h2v2h-2zM22 26h2v2h-2zM26 26h2v2h-2zM18 28h4v2h-4z"/><path fill="#646464" d="M2 2h2v2h-2zM8 2h2v2h-2zM4 6h2v2h-2zM6 8h2v2h-2zM18 8h2v2h-2zM4 12h2v2h-2zM28 12h2v2h-2zM8 14h2v2h-2zM30 16h2v2h-2zM18 18h2v2h-2zM30 18h2v2h-2zM22 20h2v2h-2zM16 22h2v2h-2zM20 22h6v2h-6zM6 24h2v2h-2zM20 24h2v2h-2zM4 26h2v2h-2zM10 26h2v2h-2zM20 26h2v2h-2zM28 26h2v2h-2zM8 28h2v2h-2zM14 28h2v2h-2zM6 30h2v2h-2zM14 30h2v2h-2zM18 30h2v2h-2z"/></pattern>
</defs>
<rect x="0" y="0" width="880" height="96" fill="url(#dirt)"/>
<rect x="8" y="8" width="864" height="80" fill="#000000"/>
<rect x="10" y="10" width="860" height="76" fill="url(#stone)"/>
<rect x="10" y="10" width="860" height="2" fill="#aaaaaa"/>
<rect x="10" y="10" width="2" height="76" fill="#aaaaaa"/>
<rect x="10" y="84" width="860" height="2" fill="#555555"/>
<rect x="868" y="10" width="2" height="76" fill="#555555"/>
<rect x="22" y="18" width="60" height="60" fill="#8b8b8b"/>
<rect x="22" y="18" width="60" height="3" fill="#373737"/>
<rect x="22" y="18" width="3" height="60" fill="#373737"/>
<rect x="22" y="75" width="60" height="3" fill="#ffffff"/>
<rect x="79" y="18" width="3" height="60" fill="#ffffff"/>
<path fill="#1d2a3a" d="M43 24h3v3h-3zM58 24h3v3h-3zM43 27h3v3h-3zM58 27h3v3h-3zM43 30h3v3h-3zM58 30h3v3h-3zM43 33h3v3h-3zM58 33h3v3h-3zM43 36h3v3h-3zM58 36h3v3h-3zM43 39h6v3h-6zM55 39h6v3h-6zM40 42h3v3h-3zM61 42h3v3h-3zM37 45h3v3h-3zM64 45h3v3h-3zM34 48h3v3h-3zM67 48h3v3h-3zM34 51h3v3h-3zM67 51h3v3h-3zM34 54h3v3h-3zM67 54h3v3h-3zM34 57h3v3h-3zM67 57h3v3h-3zM34 60h3v3h-3zM67 60h3v3h-3zM37 63h3v3h-3zM64 63h3v3h-3zM40 66h3v3h-3zM61 66h3v3h-3zM43 69h6v3h-6zM55 69h6v3h-6z"/>
<path fill="#9a6b3c" d="M46 24h12v3h-12zM46 27h12v3h-12z"/>
<path fill="#d8f1ff" d="M46 30h12v3h-12zM46 33h12v3h-12zM46 36h12v3h-12zM49 39h6v3h-6zM43 42h18v3h-18zM40 45h24v3h-24z"/>
<path fill="#4d9be6" d="M37 48h6v3h-6zM61 48h6v3h-6zM37 51h3v3h-3zM64 51h3v3h-3zM37 54h3v3h-3zM64 54h3v3h-3zM37 57h3v3h-3zM64 57h3v3h-3zM37 60h6v3h-6zM61 60h6v3h-6zM40 63h6v3h-6zM58 63h6v3h-6zM43 66h18v3h-18zM49 69h6v3h-6z"/>
<path fill="#7cc4ff" d="M43 48h18v3h-18zM40 51h3v3h-3zM46 51h18v3h-18zM40 54h3v3h-3zM46 54h18v3h-18zM40 57h24v3h-24zM43 60h18v3h-18zM46 63h12v3h-12z"/>
<path fill="#ffffff" d="M43 51h3v3h-3zM43 54h3v3h-3z"/>
<path fill="#3f3f3f" d="M109 25h3v3h-3zM106 28h6v3h-6zM109 31h3v3h-3zM109 34h3v3h-3zM109 37h3v3h-3zM109 40h3v3h-3zM103 43h15v3h-15zM121 43h3v3h-3zM133 25h3v3h-3zM130 28h6v3h-6zM133 31h3v3h-3zM133 34h3v3h-3zM133 37h3v3h-3zM133 40h3v3h-3zM127 43h15v3h-15zM154 25h6v3h-6zM151 28h3v3h-3zM157 28h3v3h-3zM148 31h3v3h-3zM157 31h3v3h-3zM145 34h3v3h-3zM157 34h3v3h-3zM145 37h15v3h-15zM157 40h3v3h-3zM157 43h3v3h-3zM175 34h15v3h-15zM205 25h15v3h-15zM211 28h3v3h-3zM211 31h3v3h-3zM211 34h3v3h-3zM211 37h3v3h-3zM211 40h3v3h-3zM211 43h3v3h-3zM223 25h3v3h-3zM235 25h3v3h-3zM223 28h3v3h-3zM235 28h3v3h-3zM223 31h15v3h-15zM223 34h3v3h-3zM235 34h3v3h-3zM223 37h3v3h-3zM235 37h3v3h-3zM223 40h3v3h-3zM235 40h3v3h-3zM223 43h3v3h-3zM235 43h3v3h-3zM241 25h15v3h-15zM241 28h3v3h-3zM241 31h9v3h-9zM241 34h3v3h-3zM241 37h3v3h-3zM241 40h3v3h-3zM241 43h15v3h-15zM283 25h3v3h-3zM283 28h3v3h-3zM283 31h3v3h-3zM283 34h3v3h-3zM283 37h3v3h-3zM271 40h3v3h-3zM283 40h3v3h-3zM274 43h9v3h-9zM289 25h3v3h-3zM301 25h3v3h-3zM289 28h3v3h-3zM301 28h3v3h-3zM289 31h3v3h-3zM301 31h3v3h-3zM289 34h3v3h-3zM301 34h3v3h-3zM289 37h3v3h-3zM301 37h3v3h-3zM289 40h3v3h-3zM301 40h3v3h-3zM292 43h9v3h-9zM307 25h12v3h-12zM307 28h3v3h-3zM319 28h3v3h-3zM307 31h3v3h-3zM319 31h3v3h-3zM307 34h3v3h-3zM319 34h3v3h-3zM307 37h3v3h-3zM319 37h3v3h-3zM307 40h3v3h-3zM319 40h3v3h-3zM307 43h12v3h-12zM328 25h12v3h-12zM325 28h3v3h-3zM325 31h3v3h-3zM334 31h6v3h-6zM325 34h3v3h-3zM337 34h3v3h-3zM325 37h3v3h-3zM337 37h3v3h-3zM325 40h3v3h-3zM337 40h3v3h-3zM328 43h12v3h-12zM343 25h15v3h-15zM343 28h3v3h-3zM343 31h9v3h-9zM343 34h3v3h-3zM343 37h3v3h-3zM343 40h3v3h-3zM343 43h15v3h-15zM373 25h15v3h-15zM373 28h3v3h-3zM373 31h9v3h-9zM373 34h3v3h-3zM373 37h3v3h-3zM373 40h3v3h-3zM373 43h15v3h-15zM391 25h3v3h-3zM403 25h3v3h-3zM391 28h3v3h-3zM403 28h3v3h-3zM391 31h3v3h-3zM403 31h3v3h-3zM391 34h3v3h-3zM403 34h3v3h-3zM394 37h3v3h-3zM400 37h3v3h-3zM394 40h3v3h-3zM400 40h3v3h-3zM397 43h3v3h-3zM409 25h15v3h-15zM409 28h3v3h-3zM409 31h9v3h-9zM409 34h3v3h-3zM409 37h3v3h-3zM409 40h3v3h-3zM409 43h15v3h-15zM427 25h12v3h-12zM427 28h3v3h-3zM439 28h3v3h-3zM427 31h12v3h-12zM427 34h3v3h-3zM439 34h3v3h-3zM427 37h3v3h-3zM439 37h3v3h-3zM427 40h3v3h-3zM439 40h3v3h-3zM427 43h3v3h-3zM439 43h3v3h-3zM445 25h3v3h-3zM457 25h3v3h-3zM448 28h3v3h-3zM454 28h3v3h-3zM451 31h3v3h-3zM451 34h3v3h-3zM451 37h3v3h-3zM451 40h3v3h-3zM451 43h3v3h-3zM463 25h3v3h-3zM475 25h3v3h-3zM463 28h3v3h-3zM475 28h3v3h-3zM463 31h3v3h-3zM475 31h3v3h-3zM463 34h3v3h-3zM475 34h3v3h-3zM463 37h3v3h-3zM469 37h3v3h-3zM475 37h3v3h-3zM463 40h6v3h-6zM472 40h6v3h-6zM463 43h3v3h-3zM475 43h3v3h-3zM481 25h3v3h-3zM493 25h3v3h-3zM481 28h3v3h-3zM493 28h3v3h-3zM481 31h15v3h-15zM481 34h3v3h-3zM493 34h3v3h-3zM481 37h3v3h-3zM493 37h3v3h-3zM481 40h3v3h-3zM493 40h3v3h-3zM481 43h3v3h-3zM493 43h3v3h-3zM499 25h15v3h-15zM499 28h3v3h-3zM499 31h9v3h-9zM499 34h3v3h-3zM499 37h3v3h-3zM499 40h3v3h-3zM499 43h15v3h-15zM517 25h12v3h-12zM517 28h3v3h-3zM529 28h3v3h-3zM517 31h12v3h-12zM517 34h3v3h-3zM529 34h3v3h-3zM517 37h3v3h-3zM529 37h3v3h-3zM517 40h3v3h-3zM529 40h3v3h-3zM517 43h3v3h-3zM529 43h3v3h-3zM535 25h15v3h-15zM535 28h3v3h-3zM535 31h9v3h-9zM535 34h3v3h-3zM535 37h3v3h-3zM535 40h3v3h-3zM535 43h15v3h-15z"/>
<path fill="#ffffff" d="M106 22h3v3h-3zM103 25h6v3h-6zM106 28h3v3h-3zM106 31h3v3h-3zM106 34h3v3h-3zM106 37h3v3h-3zM100 40h15v3h-15zM118 40h3v3h-3zM130 22h3v3h-3zM127 25h6v3h-6zM130 28h3v3h-3zM130 31h3v3h-3zM130 34h3v3h-3zM130 37h3v3h-3zM124 40h15v3h-15zM151 22h6v3h-6zM148 25h3v3h-3zM154 25h3v3h-3zM145 28h3v3h-3zM154 28h3v3h-3zM142 31h3v3h-3zM154 31h3v3h-3zM142 34h15v3h-15zM154 37h3v3h-3zM154 40h3v3h-3zM172 31h15v3h-15zM202 22h15v3h-15zM208 25h3v3h-3zM208 28h3v3h-3zM208 31h3v3h-3zM208 34h3v3h-3zM208 37h3v3h-3zM208 40h3v3h-3zM220 22h3v3h-3zM232 22h3v3h-3zM220 25h3v3h-3zM232 25h3v3h-3zM220 28h15v3h-15zM220 31h3v3h-3zM232 31h3v3h-3zM220 34h3v3h-3zM232 34h3v3h-3zM220 37h3v3h-3zM232 37h3v3h-3zM220 40h3v3h-3zM232 40h3v3h-3zM238 22h15v3h-15zM238 25h3v3h-3zM238 28h9v3h-9zM238 31h3v3h-3zM238 34h3v3h-3zM238 37h3v3h-3zM238 40h15v3h-15zM280 22h3v3h-3zM280 25h3v3h-3zM280 28h3v3h-3zM280 31h3v3h-3zM280 34h3v3h-3zM268 37h3v3h-3zM280 37h3v3h-3zM271 40h9v3h-9zM286 22h3v3h-3zM298 22h3v3h-3zM286 25h3v3h-3zM298 25h3v3h-3zM286 28h3v3h-3zM298 28h3v3h-3zM286 31h3v3h-3zM298 31h3v3h-3zM286 34h3v3h-3zM298 34h3v3h-3zM286 37h3v3h-3zM298 37h3v3h-3zM289 40h9v3h-9zM304 22h12v3h-12zM304 25h3v3h-3zM316 25h3v3h-3zM304 28h3v3h-3zM316 28h3v3h-3zM304 31h3v3h-3zM316 31h3v3h-3zM304 34h3v3h-3zM316 34h3v3h-3zM304 37h3v3h-3zM316 37h3v3h-3zM304 40h12v3h-12zM325 22h12v3h-12zM322 25h3v3h-3zM322 28h3v3h-3zM331 28h6v3h-6zM322 31h3v3h-3zM334 31h3v3h-3zM322 34h3v3h-3zM334 34h3v3h-3zM322 37h3v3h-3zM334 37h3v3h-3zM325 40h12v3h-12zM340 22h15v3h-15zM340 25h3v3h-3zM340 28h9v3h-9zM340 31h3v3h-3zM340 34h3v3h-3zM340 37h3v3h-3zM340 40h15v3h-15zM370 22h15v3h-15zM370 25h3v3h-3zM370 28h9v3h-9zM370 31h3v3h-3zM370 34h3v3h-3zM370 37h3v3h-3zM370 40h15v3h-15zM388 22h3v3h-3zM400 22h3v3h-3zM388 25h3v3h-3zM400 25h3v3h-3zM388 28h3v3h-3zM400 28h3v3h-3zM388 31h3v3h-3zM400 31h3v3h-3zM391 34h3v3h-3zM397 34h3v3h-3zM391 37h3v3h-3zM397 37h3v3h-3zM394 40h3v3h-3zM406 22h15v3h-15zM406 25h3v3h-3zM406 28h9v3h-9zM406 31h3v3h-3zM406 34h3v3h-3zM406 37h3v3h-3zM406 40h15v3h-15zM424 22h12v3h-12zM424 25h3v3h-3zM436 25h3v3h-3zM424 28h12v3h-12zM424 31h3v3h-3zM436 31h3v3h-3zM424 34h3v3h-3zM436 34h3v3h-3zM424 37h3v3h-3zM436 37h3v3h-3zM424 40h3v3h-3zM436 40h3v3h-3zM442 22h3v3h-3zM454 22h3v3h-3zM445 25h3v3h-3zM451 25h3v3h-3zM448 28h3v3h-3zM448 31h3v3h-3zM448 34h3v3h-3zM448 37h3v3h-3zM448 40h3v3h-3zM460 22h3v3h-3zM472 22h3v3h-3zM460 25h3v3h-3zM472 25h3v3h-3zM460 28h3v3h-3zM472 28h3v3h-3zM460 31h3v3h-3zM472 31h3v3h-3zM460 34h3v3h-3zM466 34h3v3h-3zM472 34h3v3h-3zM460 37h6v3h-6zM469 37h6v3h-6zM460 40h3v3h-3zM472 40h3v3h-3zM478 22h3v3h-3zM490 22h3v3h-3zM478 25h3v3h-3zM490 25h3v3h-3zM478 28h15v3h-15zM478 31h3v3h-3zM490 31h3v3h-3zM478 34h3v3h-3zM490 34h3v3h-3zM478 37h3v3h-3zM490 37h3v3h-3zM478 40h3v3h-3zM490 40h3v3h-3zM496 22h15v3h-15zM496 25h3v3h-3zM496 28h9v3h-9zM496 31h3v3h-3zM496 34h3v3h-3zM496 37h3v3h-3zM496 40h15v3h-15zM514 22h12v3h-12zM514 25h3v3h-3zM526 25h3v3h-3zM514 28h12v3h-12zM514 31h3v3h-3zM526 31h3v3h-3zM514 34h3v3h-3zM526 34h3v3h-3zM514 37h3v3h-3zM526 37h3v3h-3zM514 40h3v3h-3zM526 40h3v3h-3zM532 22h15v3h-15zM532 25h3v3h-3zM532 28h9v3h-9zM532 31h3v3h-3zM532 34h3v3h-3zM532 37h3v3h-3zM532 40h15v3h-15z"/>
<path fill="#2a2a2a" d="M102 60h8v2h-8zM102 62h2v2h-2zM110 62h2v2h-2zM102 64h8v2h-8zM102 66h2v2h-2zM110 66h2v2h-2zM102 68h2v2h-2zM110 68h2v2h-2zM102 70h2v2h-2zM110 70h2v2h-2zM102 72h2v2h-2zM110 72h2v2h-2zM114 60h10v2h-10zM114 62h2v2h-2zM114 64h6v2h-6zM114 66h2v2h-2zM114 68h2v2h-2zM114 70h2v2h-2zM114 72h10v2h-10zM126 60h2v2h-2zM126 62h2v2h-2zM126 64h2v2h-2zM126 66h2v2h-2zM126 68h2v2h-2zM126 70h2v2h-2zM126 72h10v2h-10zM138 60h10v2h-10zM138 62h2v2h-2zM138 64h6v2h-6zM138 66h2v2h-2zM138 68h2v2h-2zM138 70h2v2h-2zM138 72h10v2h-10zM152 60h6v2h-6zM150 62h2v2h-2zM158 62h2v2h-2zM150 64h2v2h-2zM158 64h2v2h-2zM150 66h10v2h-10zM150 68h2v2h-2zM158 68h2v2h-2zM150 70h2v2h-2zM158 70h2v2h-2zM150 72h2v2h-2zM158 72h2v2h-2zM164 60h8v2h-8zM162 62h2v2h-2zM164 64h6v2h-6zM170 66h2v2h-2zM170 68h2v2h-2zM162 70h2v2h-2zM170 70h2v2h-2zM164 72h6v2h-6zM174 60h10v2h-10zM174 62h2v2h-2zM174 64h6v2h-6zM174 66h2v2h-2zM174 68h2v2h-2zM174 70h2v2h-2zM174 72h10v2h-10zM186 60h8v2h-8zM186 62h2v2h-2zM194 62h2v2h-2zM186 64h2v2h-2zM194 64h2v2h-2zM186 66h2v2h-2zM194 66h2v2h-2zM186 68h2v2h-2zM194 68h2v2h-2zM186 70h2v2h-2zM194 70h2v2h-2zM186 72h8v2h-8zM210 60h2v2h-2zM208 62h4v2h-4zM210 64h2v2h-2zM210 66h2v2h-2zM210 68h2v2h-2zM210 70h2v2h-2zM206 72h10v2h-10zM218 72h2v2h-2zM226 60h2v2h-2zM224 62h4v2h-4zM226 64h2v2h-2zM226 66h2v2h-2zM226 68h2v2h-2zM226 70h2v2h-2zM222 72h10v2h-10zM240 60h4v2h-4zM238 62h2v2h-2zM242 62h2v2h-2zM236 64h2v2h-2zM242 64h2v2h-2zM234 66h2v2h-2zM242 66h2v2h-2zM234 68h10v2h-10zM242 70h2v2h-2zM242 72h2v2h-2zM246 72h2v2h-2zM252 60h6v2h-6zM250 62h2v2h-2zM258 62h2v2h-2zM250 64h2v2h-2zM256 64h4v2h-4zM250 66h2v2h-2zM254 66h2v2h-2zM258 66h2v2h-2zM250 68h4v2h-4zM258 68h2v2h-2zM250 70h2v2h-2zM258 70h2v2h-2zM252 72h6v2h-6z"/>
<path fill="#55ff55" d="M100 58h8v2h-8zM100 60h2v2h-2zM108 60h2v2h-2zM100 62h8v2h-8zM100 64h2v2h-2zM108 64h2v2h-2zM100 66h2v2h-2zM108 66h2v2h-2zM100 68h2v2h-2zM108 68h2v2h-2zM100 70h2v2h-2zM108 70h2v2h-2zM112 58h10v2h-10zM112 60h2v2h-2zM112 62h6v2h-6zM112 64h2v2h-2zM112 66h2v2h-2zM112 68h2v2h-2zM112 70h10v2h-10zM124 58h2v2h-2zM124 60h2v2h-2zM124 62h2v2h-2zM124 64h2v2h-2zM124 66h2v2h-2zM124 68h2v2h-2zM124 70h10v2h-10zM136 58h10v2h-10zM136 60h2v2h-2zM136 62h6v2h-6zM136 64h2v2h-2zM136 66h2v2h-2zM136 68h2v2h-2zM136 70h10v2h-10zM150 58h6v2h-6zM148 60h2v2h-2zM156 60h2v2h-2zM148 62h2v2h-2zM156 62h2v2h-2zM148 64h10v2h-10zM148 66h2v2h-2zM156 66h2v2h-2zM148 68h2v2h-2zM156 68h2v2h-2zM148 70h2v2h-2zM156 70h2v2h-2zM162 58h8v2h-8zM160 60h2v2h-2zM162 62h6v2h-6zM168 64h2v2h-2zM168 66h2v2h-2zM160 68h2v2h-2zM168 68h2v2h-2zM162 70h6v2h-6zM172 58h10v2h-10zM172 60h2v2h-2zM172 62h6v2h-6zM172 64h2v2h-2zM172 66h2v2h-2zM172 68h2v2h-2zM172 70h10v2h-10zM184 58h8v2h-8zM184 60h2v2h-2zM192 60h2v2h-2zM184 62h2v2h-2zM192 62h2v2h-2zM184 64h2v2h-2zM192 64h2v2h-2zM184 66h2v2h-2zM192 66h2v2h-2zM184 68h2v2h-2zM192 68h2v2h-2zM184 70h8v2h-8zM208 58h2v2h-2zM206 60h4v2h-4zM208 62h2v2h-2zM208 64h2v2h-2zM208 66h2v2h-2zM208 68h2v2h-2zM204 70h10v2h-10zM216 70h2v2h-2zM224 58h2v2h-2zM222 60h4v2h-4zM224 62h2v2h-2zM224 64h2v2h-2zM224 66h2v2h-2zM224 68h2v2h-2zM220 70h10v2h-10zM238 58h4v2h-4zM236 60h2v2h-2zM240 60h2v2h-2zM234 62h2v2h-2zM240 62h2v2h-2zM232 64h2v2h-2zM240 64h2v2h-2zM232 66h10v2h-10zM240 68h2v2h-2zM240 70h2v2h-2zM244 70h2v2h-2zM250 58h6v2h-6zM248 60h2v2h-2zM256 60h2v2h-2zM248 62h2v2h-2zM254 62h4v2h-4zM248 64h2v2h-2zM252 64h2v2h-2zM256 64h2v2h-2zM248 66h4v2h-4zM256 66h2v2h-2zM248 68h2v2h-2zM256 68h2v2h-2zM250 70h6v2h-6z"/>
<path fill="#000000" d="M814 36h6v2h-6zM812 38h2v2h-2zM820 38h2v2h-2zM820 40h2v2h-2zM816 42h4v2h-4zM814 44h2v2h-2zM812 46h2v2h-2zM820 46h2v2h-2zM812 48h10v2h-10zM832 36h2v2h-2zM830 38h2v2h-2zM830 40h2v2h-2zM828 42h2v2h-2zM826 44h2v2h-2zM826 46h2v2h-2zM824 48h2v2h-2zM838 36h6v2h-6zM836 38h2v2h-2zM844 38h2v2h-2zM844 40h2v2h-2zM840 42h4v2h-4zM838 44h2v2h-2zM836 46h2v2h-2zM844 46h2v2h-2zM836 48h10v2h-10z"/>
<path fill="#000000" d="M818 36h6v2h-6zM816 38h2v2h-2zM824 38h2v2h-2zM824 40h2v2h-2zM820 42h4v2h-4zM818 44h2v2h-2zM816 46h2v2h-2zM824 46h2v2h-2zM816 48h10v2h-10zM836 36h2v2h-2zM834 38h2v2h-2zM834 40h2v2h-2zM832 42h2v2h-2zM830 44h2v2h-2zM830 46h2v2h-2zM828 48h2v2h-2zM842 36h6v2h-6zM840 38h2v2h-2zM848 38h2v2h-2zM848 40h2v2h-2zM844 42h4v2h-4zM842 44h2v2h-2zM840 46h2v2h-2zM848 46h2v2h-2zM840 48h10v2h-10z"/>
<path fill="#000000" d="M816 34h6v2h-6zM814 36h2v2h-2zM822 36h2v2h-2zM822 38h2v2h-2zM818 40h4v2h-4zM816 42h2v2h-2zM814 44h2v2h-2zM822 44h2v2h-2zM814 46h10v2h-10zM834 34h2v2h-2zM832 36h2v2h-2zM832 38h2v2h-2zM830 40h2v2h-2zM828 42h2v2h-2zM828 44h2v2h-2zM826 46h2v2h-2zM840 34h6v2h-6zM838 36h2v2h-2zM846 36h2v2h-2zM846 38h2v2h-2zM842 40h4v2h-4zM840 42h2v2h-2zM838 44h2v2h-2zM846 44h2v2h-2zM838 46h10v2h-10z"/>
<path fill="#000000" d="M816 38h6v2h-6zM814 40h2v2h-2zM822 40h2v2h-2zM822 42h2v2h-2zM818 44h4v2h-4zM816 46h2v2h-2zM814 48h2v2h-2zM822 48h2v2h-2zM814 50h10v2h-10zM834 38h2v2h-2zM832 40h2v2h-2zM832 42h2v2h-2zM830 44h2v2h-2zM828 46h2v2h-2zM828 48h2v2h-2zM826 50h2v2h-2zM840 38h6v2h-6zM838 40h2v2h-2zM846 40h2v2h-2zM846 42h2v2h-2zM842 44h4v2h-4zM840 46h2v2h-2zM838 48h2v2h-2zM846 48h2v2h-2zM838 50h10v2h-10z"/>
<path fill="#80ff20" d="M816 36h6v2h-6zM814 38h2v2h-2zM822 38h2v2h-2zM822 40h2v2h-2zM818 42h4v2h-4zM816 44h2v2h-2zM814 46h2v2h-2zM822 46h2v2h-2zM814 48h10v2h-10zM834 36h2v2h-2zM832 38h2v2h-2zM832 40h2v2h-2zM830 42h2v2h-2zM828 44h2v2h-2zM828 46h2v2h-2zM826 48h2v2h-2zM840 36h6v2h-6zM838 38h2v2h-2zM846 38h2v2h-2zM846 40h2v2h-2zM842 42h4v2h-4zM840 44h2v2h-2zM838 46h2v2h-2zM846 46h2v2h-2zM838 48h10v2h-10z"/>
<rect x="560" y="60" width="288" height="14" fill="#000000"/>
<rect x="562" y="62" width="284" height="10" fill="#2b2b2b"/>
<rect x="562" y="62" width="284" height="10" fill="#80ff20"/>
<rect x="562" y="62" width="284" height="2" fill="#c3ff8a"/>
<rect x="562" y="70" width="284" height="2" fill="#4ca30c"/>
<rect x="577" y="62" width="2" height="10" fill="#000000" fill-opacity="0.45"/>
<rect x="593" y="62" width="2" height="10" fill="#000000" fill-opacity="0.45"/>
<rect x="608" y="62" width="2" height="10" fill="#000000" fill-opacity="0.45"/>
<rect x="624" y="62" width="2" height="10" fill="#000000" fill-opacity="0.45"/>
<rect x="640" y="62" width="2" height="10" fill="#000000" fill-opacity="0.45"/>
<rect x="656" y="62" width="2" height="10" fill="#000000" fill-opacity="0.45"/>
<rect x="671" y="62" width="2" height="10" fill="#000000" fill-opacity="0.45"/>
<rect x="687" y="62" width="2" height="10" fill="#000000" fill-opacity="0.45"/>
<rect x="703" y="62" width="2" height="10" fill="#000000" fill-opacity="0.45"/>
<rect x="719" y="62" width="2" height="10" fill="#000000" fill-opacity="0.45"/>
<rect x="735" y="62" width="2" height="10" fill="#000000" fill-opacity="0.45"/>
<rect x="750" y="62" width="2" height="10" fill="#000000" fill-opacity="0.45"/>
<rect x="766" y="62" width="2" height="10" fill="#000000" fill-opacity="0.45"/>
<rect x="782" y="62" width="2" height="10" fill="#000000" fill-opacity="0.45"/>
<rect x="798" y="62" width="2" height="10" fill="#000000" fill-opacity="0.45"/>
<rect x="813" y="62" width="2" height="10" fill="#000000" fill-opacity="0.45"/>
<rect x="829" y="62" width="2" height="10" fill="#000000" fill-opacity="0.45"/>
</svg>
